<svg xmlns="http://www.w3.org/2000/svg" viewBox="0 0 12 12" width="192" height="192">
  <rect width="12" height="12" fill="#000000" />
  
  <!-- Row 1 -->
  <rect x="3" y="0" width="6" height="1" fill="#f1c40f" />
  
  <!-- Row 2 -->
  <rect x="2" y="1" width="3" height="1" fill="#f1c40f" />
  <rect x="5" y="1" width="4" height="1" fill="#ff2222" />
  <rect x="9" y="1" width="1" height="1" fill="#f1c40f" />

  <!-- Row 3 -->
  <rect x="1" y="2" width="4" height="1" fill="#f1c40f" />
  <rect x="5" y="2" width="4" height="1" fill="#f1c27d" />
  <rect x="9" y="2" width="1" height="1" fill="#f1c40f" />

  <!-- Row 4 -->
  <rect x="0" y="3" width="4" height="1" fill="#f1c40f" />
  <rect x="4" y="3" width="1" height="1" fill="#f1c27d" />
  <rect x="5" y="3" width="1" height="1" fill="#000000" />
  <rect x="6" y="3" width="1" height="1" fill="#f1c27d" />
  <rect x="7" y="3" width="1" height="1" fill="#000000" />
  <rect x="8" y="3" width="2" height="1" fill="#f1c27d" />

  <!-- Row 5 -->
  <rect x="0" y="4" width="3" height="1" fill="#f1c40f" />
  <rect x="3" y="4" width="3" height="1" fill="#f1c27d" />
  <rect x="6" y="4" width="2" height="1" fill="#5c4033" />
  <rect x="8" y="4" width="2" height="1" fill="#f1c27d" />

  <!-- Row 6 -->
  <rect x="1" y="5" width="2" height="1" fill="#f1c40f" />
  <rect x="3" y="5" width="2" height="1" fill="#f1c27d" />
  <rect x="5" y="5" width="4" height="1" fill="#5c4033" />
  <rect x="9" y="5" width="1" height="1" fill="#f1c27d" />

  <!-- Row 7 -->
  <rect x="2" y="6" width="1" height="1" fill="#f1c40f" />
  <rect x="3" y="6" width="6" height="1" fill="#f1c27d" />

  <!-- Row 8 -->
  <rect x="2" y="7" width="2" height="1" fill="#f1c27d" />
  <rect x="4" y="7" width="2" height="1" fill="#000000" />
  <rect x="6" y="7" width="3" height="1" fill="#f1c27d" />

  <!-- Row 9 -->
  <rect x="2" y="8" width="1" height="1" fill="#f1c27d" />
  <rect x="3" y="8" width="1" height="1" fill="#000000" />
  <rect x="4" y="8" width="2" height="1" fill="#f1c27d" />
  <rect x="6" y="8" width="1" height="1" fill="#000000" />
  <rect x="7" y="8" width="1" height="1" fill="#f1c27d" />

  <!-- Row 10 -->
  <rect x="2" y="9" width="7" height="1" fill="#ff2222" />

  <!-- Row 11 -->
  <rect x="2" y="10" width="2" height="1" fill="#ff2222" />
  <rect x="7" y="10" width="2" height="1" fill="#ff2222" />

  <!-- Row 12 -->
  <rect x="2" y="11" width="2" height="1" fill="#ff2222" />
  <rect x="7" y="11" width="2" height="1" fill="#ff2222" />
</svg>
